<?xml version="1.0" encoding="UTF-8" standalone="no"?>
<svg width="100px" height="100px" viewBox="0 0 100 100" version="1.1" xmlns="http://www.w3.org/2000/svg" xmlns:xlink="http://www.w3.org/1999/xlink" xmlns:sketch="http://www.bohemiancoding.com/sketch/ns">
    <title>benefit-location</title>
    <description>Created with Sketch (http://www.bohemiancoding.com/sketch)</description>
    <defs></defs>
    <g id="Page-1" stroke="none" stroke-width="1" fill="none" fill-rule="evenodd" sketch:type="MSPage">
        <g id="benefit-location" sketch:type="MSArtboardGroup">
            <g id="Oval-6-+-Imported-Layers" sketch:type="MSLayerGroup">
                <circle id="Oval-6" fill="#F0C330" sketch:type="MSShapeGroup" cx="50" cy="50" r="50"></circle>
                <path d="M20,71 L35,75 L49,71 L63,75 L78,71 L75,23 L61,27 L48.869,23 L36,27 L23,23 L20,71 L20,71 Z M63,37 L69,43 L63,37 Z M63,43 L69,37 L63,43 Z M30,60 L32,58 L30,60 Z M37,53 L39,51 L37,53 Z M66,47 L66,49 L66,47 Z M53,52 L55,54 L53,52 Z M45,47 L47,47 L45,47 Z M62,56 L64,54 L62,56 Z" id="Imported-Layers" stroke="#D07E13" stroke-width="2" stroke-linecap="round" stroke-linejoin="round" sketch:type="MSShapeGroup"></path>
            </g>
        </g>
    </g>
</svg>