<?xml version="1.0" encoding="UTF-8" standalone="no"?>
<svg width="100px" height="100px" viewBox="0 0 100 100" version="1.1" xmlns="http://www.w3.org/2000/svg" xmlns:xlink="http://www.w3.org/1999/xlink" xmlns:sketch="http://www.bohemiancoding.com/sketch/ns">
    <title>benefit-boredom</title>
    <description>Created with Sketch (http://www.bohemiancoding.com/sketch)</description>
    <defs></defs>
    <g id="Page-1" stroke="none" stroke-width="1" fill="none" fill-rule="evenodd" sketch:type="MSPage">
        <g id="benefit-boredom" sketch:type="MSArtboardGroup">
            <g id="Oval-6-+-Imported-Layers" sketch:type="MSLayerGroup">
                <circle id="Oval-6" fill="#9A5CB4" sketch:type="MSShapeGroup" cx="50" cy="50" r="50"></circle>
                <path d="M36,69 L46,69 L46,63 L36,63 L36,69 Z M30,35 L36,35 L36,29 L30,29 L30,35 Z M52,69 L62,69 L62,63 L52,63 L52,69 Z M72,49 L72,43 L68,43 L68,39 L62,39 L62,35 L56,35 L56,39 L42,39 L42,35 L36,35 L36,39 L30,39 L30,43 L26,43 L26,49 L20,49 L20,63 L26,63 L26,55 L32,55 L32,63 L36,63 L36,59 L62,59 L62,63 L66,63 L66,55 L72,55 L72,63 L78,63 L78,49 L72,49 L72,49 Z M36,43 L42,43 L42,49 L36,49 L36,43 Z M56,43 L62,43 L62,49 L56,49 L56,43 Z M62,35 L68,35 L68,29 L62,29 L62,35 Z" id="Imported-Layers" stroke="#F0B1FF" stroke-width="2" stroke-linecap="round" stroke-linejoin="round" sketch:type="MSShapeGroup"></path>
            </g>
        </g>
    </g>
</svg>