<?xml version="1.0" encoding="UTF-8" standalone="no"?>
<svg width="100px" height="100px" viewBox="0 0 100 100" version="1.1" xmlns="http://www.w3.org/2000/svg" xmlns:xlink="http://www.w3.org/1999/xlink" xmlns:sketch="http://www.bohemiancoding.com/sketch/ns">
    <title>benefit-ask</title>
    <description>Created with Sketch (http://www.bohemiancoding.com/sketch)</description>
    <defs></defs>
    <g id="Page-1" stroke="none" stroke-width="1" fill="none" fill-rule="evenodd" sketch:type="MSPage">
        <g id="benefit-ask" sketch:type="MSArtboardGroup">
            <g id="Oval-6-+-Imported-Layers" sketch:type="MSLayerGroup">
                <circle id="Oval-6" fill="#E54D42" sketch:type="MSShapeGroup" cx="50" cy="50" r="50"></circle>
                <path d="M62,28 L58,28 C52.956,28 50,30.957 50,36 C50,30.957 47.043,28 42,28 L22,28 L22,68 L41,68 C46.043,68 50,70.957 50,76 C50,70.957 53.956,68 59,68 L78,68 L78,28 L72,28 M50,35 L50,75" id="Stroke-1" stroke="#F0C330" stroke-width="2" stroke-linecap="round" stroke-linejoin="round" sketch:type="MSShapeGroup"></path>
                <path d="M72,46 L67,41 L62,46 L62,24 L72,24 L72,46 L72,46 Z" id="Stroke-2" stroke="#F0C330" stroke-width="2" stroke-linecap="round" sketch:type="MSShapeGroup"></path>
            </g>
        </g>
    </g>
</svg>