<?xml version="1.0" encoding="UTF-8" standalone="no"?>
<svg width="100px" height="100px" viewBox="0 0 100 100" version="1.1" xmlns="http://www.w3.org/2000/svg" xmlns:xlink="http://www.w3.org/1999/xlink" xmlns:sketch="http://www.bohemiancoding.com/sketch/ns">
    <title>benefit-people</title>
    <description>Created with Sketch (http://www.bohemiancoding.com/sketch)</description>
    <defs></defs>
    <g id="Page-1" stroke="none" stroke-width="1" fill="none" fill-rule="evenodd" sketch:type="MSPage">
        <g id="benefit-people" sketch:type="MSArtboardGroup">
            <g id="Oval-6-+-Imported-Layers" sketch:type="MSLayerGroup">
                <path d="M50,100 C77.6142389,100 100,77.6142389 100,50 C100,22.3857611 77.6142389,0 50,0 C22.3857611,0 0,22.3857611 0,50 C0,77.6142389 22.3857611,100 50,100 Z" id="Oval-6" fill="#39CA74" sketch:type="MSShapeGroup"></path>
                <g id="Imported-Layers" transform="translate(20.000000, 18.000000)" stroke="#ECF0F1" stroke-width="2" sketch:type="MSShapeGroup">
                    <path d="M19,41.6738281 C17.2804218,41.7560239 14,39.708 14,39.708 L14,45 L3.931,48.621 C1.552,49.471 0,51.476 0,54 L0,58 L38,58 L38,54 C38,51.476 36.273,49.471 33.895,48.621 L24,45 L24,39.23 C24,39.23 20.6137551,41.5966906 19,41.6738281 Z M28.618,29.133 C28.618,35.73 24.162,41.078 18.664,41.078 C13.166,41.078 8.709,35.73 8.709,29.133 C8.709,22.536 13.166,17.188 18.664,17.188 C24.162,17.188 28.618,22.536 28.618,29.133 L28.618,29.133 Z M25.217,17.131 C25.217,8.773 32.557,0 41.608,0 C50.661,0 58,6.774 58,15.131 C58,21.425 53.837,26.822 47.914,29.101 C46.652,30.261 39.251,36.566 37.991,37.827 C37.991,36.566 37.991,31.522 38,30.084 C36.662,29.895 30.21,29.5529996 29,29.0839996 L25.217,17.131 Z M35,17 L37,17 L37,15 L35,15 L35,17 Z M41,17 L43,17 L43,15 L41,15 L41,17 Z M47,17 L49,17 L49,15 L47,15 L47,17 Z" id="Stroke-1"></path>
                </g>
            </g>
        </g>
    </g>
</svg>